<svg width="122" height="40" viewBox="0 0 122 40" fill="none" xmlns="http://www.w3.org/2000/svg">
<path d="M55.3482 10.2056V23.308L64.1629 10.2056H68.7787V23.308L77.5458 10.2056H82.1616V31.2031H77.5458V18.1007L68.7757 31.2031H64.1629V18.1007L55.3482 31.2031H50.7324V10.2056H55.3482Z" fill="white"/>
<path d="M40.6992 3.06586C40.6992 1.38617 42.1257 1.57958e-05 43.8041 1.57958e-05C44.2067 -0.00127979 44.6057 0.0771359 44.9779 0.23075C45.3502 0.384364 45.6884 0.610143 45.9731 0.895091C46.2578 1.18004 46.4834 1.51853 46.6369 1.89108C46.7904 2.26363 46.8687 2.66288 46.8675 3.06586C46.8675 4.7878 45.5246 6.17319 43.8056 6.17319C42.9834 6.16845 42.1963 5.83959 41.6148 5.25792C41.0333 4.67625 40.7044 3.88864 40.6992 3.06586ZM41.4962 10.2064H46.112V31.2032H41.4962V10.2064Z" fill="white"/>
<path d="M27.0439 10.2063H31.659V31.2031H27.0439V10.2063ZM36.1911 10.2063H38.8345V14.7413H31.7012L36.1911 10.2063Z" fill="white"/>
<path d="M109.598 10.2063H114.213V31.2031H109.598V10.2063ZM118.746 10.2063H121.389V14.7413H114.256L118.746 10.2063Z" fill="white"/>
<path d="M13.0369 9.84644C11.4118 9.84721 9.80829 10.2195 8.34886 10.935C6.88942 11.6505 5.61258 12.6902 4.6158 13.9747V10.2056H0V40H4.6158V27.4265C5.61258 28.7111 6.88942 29.7508 8.34886 30.4662C9.80829 31.1817 11.4118 31.554 13.0369 31.5548C18.9616 31.5548 23.7651 26.6953 23.7651 20.701C23.7651 14.7067 18.9616 9.84644 13.0369 9.84644ZM13.0369 27.3911C9.41783 27.3911 6.46831 24.3894 6.46831 20.701C6.46831 17.0126 9.41482 14.0109 13.0369 14.0109C16.659 14.0109 19.6032 17.0119 19.6032 20.701C19.6032 24.3901 16.6582 27.3911 13.0369 27.3911Z" fill="white"/>
<path d="M102.751 20.7033C102.751 24.3924 99.8045 27.3956 96.184 27.3956C95.0291 27.3965 93.8954 27.0861 92.9019 26.4969L101.927 17.4647L104.953 14.4426C104.267 13.4672 103.427 12.6109 102.465 11.908C100.643 10.57 98.4414 9.84982 96.1817 9.85255C90.2555 9.85255 85.4512 14.712 85.4512 20.7056C85.4472 22.4191 85.8477 24.1092 86.6201 25.6385C87.3924 27.1677 88.5148 28.4926 89.8959 29.5054C91.7186 30.8439 93.921 31.5643 96.1817 31.5616C102.107 31.5616 106.909 26.7014 106.909 20.7056L102.751 20.7033ZM89.6146 20.7033C89.6146 17.0142 92.5611 14.014 96.184 14.014C97.3376 14.0137 98.4702 14.3238 99.463 14.912L90.438 23.9442C89.8963 22.9501 89.6132 21.8356 89.6146 20.7033Z" fill="white"/>
</svg>
