<svg version="1.1" id="Layer_1" xmlns="http://www.w3.org/2000/svg" xmlns:xlink="http://www.w3.org/1999/xlink" x="0px" y="0px" viewBox="0 0 162 55.2" style="enable-background:new 0 0 162 55.2;" xml:space="preserve">
<path class="st0" d="M153.52,44.39h6.94v-6.9h-6.94V44.39z M125.48,40.49c-0.38-0.9-0.57-1.92-0.57-3.04c0-1.98,0.69-3.69,2.06-5.12
	c1.37-1.43,3.35-2.27,5.94-2.5l6.76-0.56v-1.59c0-1.28-0.34-2.2-1.03-2.77c-0.69-0.57-1.62-0.85-2.81-0.85
	c-1.22,0-2.21,0.29-2.97,0.88c-0.76,0.58-1.15,1.44-1.15,2.56h-5.99c0.03-1.34,0.32-2.51,0.87-3.52c0.55-1.01,1.27-1.84,2.17-2.51
	c0.9-0.67,1.98-1.18,3.23-1.53c1.25-0.35,2.6-0.53,4.07-0.53c2.93,0,5.25,0.71,6.94,2.13c1.7,1.42,2.55,3.5,2.55,6.24v11.97h4.12
	v4.65h-9.42l-0.05-3.79h-0.21c-0.7,1.34-1.63,2.4-2.79,3.19c-1.16,0.79-2.69,1.18-4.57,1.18c-1.12,0-2.15-0.19-3.07-0.56
	c-0.93-0.37-1.74-0.9-2.44-1.57C126.4,42.18,125.86,41.39,125.48,40.49 M131.12,38.13c0,0.73,0.33,1.28,1.01,1.65
	c0.67,0.37,1.54,0.55,2.6,0.55c1.53,0,2.73-0.54,3.61-1.62c0.88-1.08,1.32-2.39,1.32-3.93v-0.96l-7.18,0.63
	c-0.89,0.09-1.34,0.62-1.36,1.59V38.13z M97.81,40.49c-0.38-0.9-0.57-1.92-0.57-3.04c0-1.98,0.69-3.69,2.06-5.12
	c1.37-1.43,3.35-2.27,5.94-2.5l6.76-0.56v-1.59c0-1.28-0.34-2.2-1.03-2.77c-0.69-0.57-1.62-0.85-2.81-0.85
	c-1.22,0-2.21,0.29-2.97,0.88c-0.76,0.58-1.15,1.44-1.15,2.56h-5.99c0.03-1.34,0.32-2.51,0.87-3.52c0.55-1.01,1.27-1.84,2.17-2.51
	c0.9-0.67,1.98-1.18,3.23-1.53c1.25-0.35,2.6-0.53,4.07-0.53c2.93,0,5.25,0.71,6.94,2.13c1.7,1.42,2.55,3.5,2.55,6.24v11.97H122
	v4.65h-9.42l-0.05-3.79h-0.21c-0.7,1.34-1.63,2.4-2.79,3.19c-1.16,0.79-2.69,1.18-4.57,1.18c-1.12,0-2.15-0.19-3.07-0.56
	c-0.93-0.37-1.74-0.9-2.44-1.57C98.73,42.18,98.19,41.39,97.81,40.49 M103.46,38.13c0,0.73,0.33,1.28,1.01,1.65
	c0.67,0.37,1.54,0.55,2.6,0.55c1.53,0,2.73-0.54,3.61-1.62c0.88-1.08,1.32-2.39,1.32-3.93v-0.96l-7.18,0.63
	c-0.89,0.09-1.34,0.62-1.36,1.59V38.13z M92.56,11.82h-5.99v32.57h5.99V11.82z M80.65,19.98h-5.99v24.41h5.99V19.98z M80.74,11.82
	h-6.17v5.33h6.17V11.82z M57.61,11.82v8.16h-4.84v4.63h4.84v19.78h12.07v-4.65H63.6V24.61h6.08v-4.63H63.6v-8.16H57.61z M39.48,23.4
	V9.12H25.19C32.23,10.86,37.73,16.36,39.48,23.4 M25.19,47.06h14.29V32.78C37.73,39.82,32.23,45.32,25.19,47.06 M15.82,9.11H1.54
	V23.4C3.28,16.36,8.78,10.86,15.82,9.11 M1.53,32.77v14.29h14.29C8.78,45.31,3.28,39.81,1.53,32.77"></path>
</svg>