<svg xmlns="http://www.w3.org/2000/svg" viewBox="0 0 512 512"><defs><clipPath id="a" clipPathUnits="userSpaceOnUse"><path d="M224 1024C100.288 1024 0 923.711 0 800V224C0 100.288 100.288 0 224 0h576c123.711 0 224 100.288 224 224v576c0 123.711-100.289 224-224 224z"/></clipPath><clipPath id="c" clipPathUnits="userSpaceOnUse"><path d="M0 1024h1024V0H0Z"/></clipPath><clipPath id="d" clipPathUnits="userSpaceOnUse"><path d="M651.159 661.209c-40.906-36.123-68.642-109.118-83.543-148.333l-4.38-11.496c-13.351-35.054-31.637-83.062-60.344-112.755C454.683 338.76 386.92 298.156 354.2 285.25l1.517-3.411-.148-.06a298.697 298.697 0 0 1 40.574-20.816c35.639-14.965 74.782-23.238 115.86-23.238 165.407 0 299.496 134.048 299.496 299.405 0 64.564-20.443 124.356-55.212 173.258l-.012.017-2.83.056c-2.305-.435-55.077-7.562-102.286-49.252"/></clipPath><clipPath id="f" clipPathUnits="userSpaceOnUse"><path d="M0 1024h1024V0H0Z"/></clipPath><clipPath id="g" clipPathUnits="userSpaceOnUse"><path d="M723.238 712.286a275.37 275.37 0 0 1-35.573-2.342c-25.841-3.373-50.695-10.296-73.628-20.129-15.563-6.674-38.028-19.806-49.355-27.531-21.888-14.927-48.78-35.515-71.9-54.159-33.036-26.64-70.73-53.69-110.522-55.249-65.919-2.583-120.545 51.805-120.626 117.754a119.524 119.524 0 0 0 4.095 31.263c.89 3.304 1.919 6.55 3.078 9.734l.122.422c-35.496-49.208-56.422-109.617-56.422-174.919 0-88.248 38.207-167.558 98.97-222.352l-.012-.012s-.008-.01-.013-.013h.001c-27.768-27.612-61.432-49.301-98.946-63.002l.004-.001c25.252-9.07 56.343-14.025 84.718-14.025 34.898 0 68.74 8.906 98.919 23.235 31.072 14.754 58.262 35.261 78.69 57.769 27.184 29.95 53.881 88.102 72.659 133.923 8.398 18.589 15.311 37.17 21.334 52.927 13.894 36.346 42.389 115.383 84.798 152.833 46.89 41.407 102.076 51.885 102.414 51.949l.232.044c-2.689.319-5.622.554-8.335.796-4.568.406-9.176.676-13.807.855-3.519.136-7.048.23-10.599.23h-.296"/></clipPath><clipPath id="i" clipPathUnits="userSpaceOnUse"><path d="M493.521 534.51c0-10.144 7.341-18.367 16.395-18.367 9.055 0 16.395 8.223 16.395 18.367s-7.34 18.367-16.395 18.367c-9.054 0-16.395-8.223-16.395-18.367"/></clipPath><clipPath id="k" clipPathUnits="userSpaceOnUse"><path d="M0 1024h1024V0H0Z"/></clipPath><clipPath id="l" clipPathUnits="userSpaceOnUse"><path d="M223.055 458.173h164.288V314.777H223.055Z"/></clipPath><clipPath id="m" clipPathUnits="userSpaceOnUse"><path d="M223.055 458.173c15.3-56.061 46.479-105.572 88.421-143.396 38.455 38.248 65.527 87.882 75.867 143.396z"/></clipPath><linearGradient id="b" x1="0.27519327" x2="0.58429492" y1="-0.21524902" y2="0.093852624" gradientTransform="scale(1229.3503 -1230.26624) rotate(45 .956 -.297)" gradientUnits="userSpaceOnUse" spreadMethod="pad"><stop offset="0" style="stop-opacity:1;stop-color:#2032ac"/><stop offset="0.49626541" style="stop-opacity:1;stop-color:#1b296d"/><stop offset="0.989583" style="stop-opacity:1;stop-color:#1b296d"/><stop offset="1" style="stop-opacity:1;stop-color:#1b296d"/></linearGradient><linearGradient id="e" x1="0" x2="1" y1="0" y2="0" gradientTransform="matrix(0 -482.93298 -482.93298 0 582.85 715.62)" gradientUnits="userSpaceOnUse" spreadMethod="pad"><stop offset="0" style="stop-opacity:1;stop-color:#fff"/><stop offset="0.78376663" style="stop-opacity:1;stop-color:#c3d4d9"/><stop offset="1" style="stop-opacity:1;stop-color:#c3d4d9"/></linearGradient><linearGradient id="h" x1="0" x2="1" y1="0" y2="0" gradientTransform="scale(977.58923) rotate(-90 .582 .087)" gradientUnits="userSpaceOnUse" spreadMethod="pad"><stop offset="0" style="stop-opacity:1;stop-color:#00dbb4"/><stop offset="0.114643" style="stop-opacity:1;stop-color:#00dbb4"/><stop offset="0.92039933" style="stop-opacity:1;stop-color:#205bb6"/><stop offset="1" style="stop-opacity:1;stop-color:#205bb6"/></linearGradient><linearGradient id="j" x1="0" x2="1" y1="0" y2="0" gradientTransform="scale(218.31848) rotate(-90 2.607 .272)" gradientUnits="userSpaceOnUse" spreadMethod="pad"><stop offset="0" style="stop-opacity:1;stop-color:#21ccb4"/><stop offset="0.17968589" style="stop-opacity:1;stop-color:#1f2db7"/><stop offset="0.190264" style="stop-opacity:1;stop-color:#1f2db7"/><stop offset="0.53450012" style="stop-opacity:1;stop-color:#182353"/><stop offset="0.993329" style="stop-opacity:1;stop-color:#182353"/><stop offset="1" style="stop-opacity:1;stop-color:#182353"/></linearGradient><linearGradient id="n" x1="0" x2="1" y1="0" y2="0" gradientTransform="scale(1240.4211) rotate(90 .439 -.193)" gradientUnits="userSpaceOnUse" spreadMethod="pad"><stop offset="0" style="stop-opacity:1;stop-color:#000"/><stop offset="0.995413" style="stop-opacity:0;stop-color:#000"/><stop offset="1" style="stop-opacity:0;stop-color:#000"/></linearGradient></defs><g clip-path="url(#a)" transform="matrix(.8552 0 0 -.856 -182.004 715.491)"><path d="M512.173 835.86c-101.154 0-189.055-49.038-242.976-123.81-1.83-2.538-1.866-5.982-3.617-8.577-15.703-23.283-3.182-90.857-11.875-118.105-9.198-28.833-23.065-36.304-23.065-68.063 0-57.451 21.757-77.735 50.31-119.27C333.76 321.209 404.94 264.82 513.957 264.82c167.957 0 270.827 104.84 270.827 268.556 0 33.625-15.97 65.251-19.209 96.483-2.913 28.091 6.632 55.457-9.642 78.59-.294.417.66 1.581.364 1.997C702.48 786.12 614.048 835.86 512.173 835.86z" style="fill:url(#b);stroke:none;stroke-width:.999625"/></g><g clip-path="url(#c)" transform="matrix(.85477 0 0 -.856 -181.644 715.491)"><path d="M0 0c-2.69.319-5.622.554-8.335.795-4.569.407-9.177.676-13.808.856-3.616.14-7.243.235-10.894.23A275.196 275.196 0 0 1-68.611-.461c-25.841-3.373-50.694-10.296-73.628-20.129-15.563-6.674-38.027-19.807-49.354-27.531-21.888-14.926-48.781-35.515-71.901-54.159-33.035-26.64-70.73-53.69-110.522-55.248-65.919-2.584-120.545 51.804-120.626 117.753a119.566 119.566 0 0 0 4.095 31.263c.89 3.303 1.92 6.55 3.079 9.734l.121.423c-35.496-49.209-56.422-109.618-56.422-174.921 0-27.333 3.691-53.799 10.555-78.956h-.007c.082-.297.192-.582.275-.879a297.62 297.62 0 0 1 5.852-18.724c.602-1.724 1.295-3.402 1.927-5.112 1.743-4.718 3.55-9.402 5.523-14.005.878-2.053 1.828-4.063 2.752-6.092 1.908-4.193 3.88-8.346 5.973-12.431a295.986 295.986 0 0 1 3.32-6.254 298.293 298.293 0 0 1 6.653-11.637 293.396 293.396 0 0 1 3.731-6.068c2.422-3.814 4.947-7.548 7.534-11.242 1.297-1.853 2.569-3.718 3.907-5.54 2.862-3.898 5.854-7.688 8.898-11.438 1.196-1.474 2.342-2.987 3.564-4.437a301.735 301.735 0 0 1 12.144-13.528c.447-.468.859-.968 1.308-1.434a301.824 301.824 0 0 1 14.838-14.358c.077-.069.145-.147.222-.216l-.01-.012s-.009-.01-.014-.013h.001c-27.767-27.611-61.432-49.301-98.946-63.002l.004-.002c25.252-9.07 56.344-14.024 84.718-14.024 34.898 0 68.74 8.905 98.919 23.236.054.025.102.057.156.083 35.612-14.939 74.658-23.319 115.699-23.319 165.407 0 299.496 134.048 299.496 299.404C55.223-108.703 34.776-48.906 0 0" style="fill:#fff;fill-opacity:1;fill-rule:nonzero;stroke:none" transform="translate(756.276 710.405)"/></g><g clip-path="url(#d)" transform="matrix(.85477 0 0 -.856 -181.644 715.491)"><path d="M651.159 661.209c-40.906-36.123-68.642-109.118-83.543-148.333l-4.38-11.496c-13.351-35.054-31.637-83.062-60.344-112.755C454.683 338.76 386.92 298.156 354.2 285.25l1.517-3.411-.148-.06a298.697 298.697 0 0 1 40.574-20.816c35.639-14.965 74.782-23.238 115.86-23.238 165.407 0 299.496 134.048 299.496 299.405 0 64.564-20.443 124.356-55.212 173.258l-.012.017-2.83.056c-2.305-.435-55.077-7.562-102.286-49.252" style="fill:url(#e);stroke:none"/></g><g clip-path="url(#f)" transform="matrix(.85477 0 0 -.856 -181.644 715.491)"><path d="M0 0c3.79 0 6.874 3.082 6.874 6.871 0 3.789-3.084 6.872-6.874 6.872-3.79 0-6.874-3.083-6.874-6.872C-6.874 3.082-3.79 0 0 0" style="fill:#fff;fill-opacity:1;fill-rule:nonzero;stroke:none" transform="translate(526.442 769.872)"/><path d="M0 0a4.156 4.156 0 0 1 4.152 4.151A4.155 4.155 0 0 1 0 8.302a4.155 4.155 0 0 1-4.152-4.151A4.156 4.156 0 0 1 0 0" style="fill:#fff;fill-opacity:1;fill-rule:nonzero;stroke:none" transform="translate(501.408 689.348)"/><path d="M0 0a6.232 6.232 0 0 1 6.225 6.224A6.23 6.23 0 0 1 0 12.446c-3.433 0-6.226-2.791-6.226-6.222A6.233 6.233 0 0 1 0 0" style="fill:#fff;fill-opacity:1;fill-rule:nonzero;stroke:none" transform="translate(395.201 641.178)"/><path d="M0 0a3.317 3.317 0 1 1 0 6.634A3.317 3.317 0 0 1 0 0" style="fill:#fff;fill-opacity:1;fill-rule:nonzero;stroke:none" transform="translate(341.307 678.209)"/><path d="M0 0a3.068 3.068 0 0 1 3.065 3.064A3.067 3.067 0 0 1 0 6.126a3.066 3.066 0 0 1-3.064-3.062A3.067 3.067 0 0 1 0 0" style="fill:#fff;fill-opacity:1;fill-rule:nonzero;stroke:none" transform="translate(602.681 750.963)"/><path d="M0 0a2.376 2.376 0 0 1 2.373 2.373A2.375 2.375 0 0 1 0 4.745a2.375 2.375 0 0 1-2.373-2.372A2.376 2.376 0 0 1 0 0" style="fill:#fff;fill-opacity:1;fill-rule:nonzero;stroke:none" transform="translate(417.045 692.999)"/><path d="M0 0a4.788 4.788 0 0 1 4.783 4.783A4.788 4.788 0 0 1 0 9.564a4.788 4.788 0 0 1-4.783-4.781A4.788 4.788 0 0 1 0 0" style="fill:#fff;fill-opacity:1;fill-rule:nonzero;stroke:none" transform="translate(434.18 720.246)"/></g><g clip-path="url(#g)" transform="matrix(.85477 0 0 -.856 -181.644 715.491)"><path d="M723.238 712.286a275.37 275.37 0 0 1-35.573-2.342c-25.841-3.373-50.695-10.296-73.628-20.129-15.563-6.674-38.028-19.806-49.355-27.531-21.888-14.927-48.78-35.515-71.9-54.159-33.036-26.64-70.73-53.69-110.522-55.249-65.919-2.583-120.545 51.805-120.626 117.754a119.524 119.524 0 0 0 4.095 31.263c.89 3.304 1.919 6.55 3.078 9.734l.122.422c-35.496-49.208-56.422-109.617-56.422-174.919 0-88.248 38.207-167.558 98.97-222.352l-.012-.012s-.008-.01-.013-.013h.001c-27.768-27.612-61.432-49.301-98.946-63.002l.004-.001c25.252-9.07 56.343-14.025 84.718-14.025 34.898 0 68.74 8.906 98.919 23.235 31.072 14.754 58.262 35.261 78.69 57.769 27.184 29.95 53.881 88.102 72.659 133.923 8.398 18.589 15.311 37.17 21.334 52.927 13.894 36.346 42.389 115.383 84.798 152.833 46.89 41.407 102.076 51.885 102.414 51.949l.232.044c-2.689.319-5.622.554-8.335.796-4.568.406-9.176.676-13.807.855-3.519.136-7.048.23-10.599.23h-.296" style="fill:url(#h);stroke:none"/></g><g clip-path="url(#i)" transform="matrix(.85477 0 0 -.856 -181.644 715.491)"><path d="M493.521 534.51c0-10.144 7.341-18.367 16.395-18.367 9.055 0 16.395 8.223 16.395 18.367s-7.34 18.367-16.395 18.367c-9.054 0-16.395-8.223-16.395-18.367" style="fill:url(#j);stroke:none"/></g><g clip-path="url(#k)" transform="matrix(.85477 0 0 -.856 -181.644 715.491)"><g clip-path="url(#l)"><g clip-path="url(#m)"><path d="M223.055 458.173c15.3-56.061 46.479-105.572 88.421-143.396 38.455 38.248 65.527 87.882 75.867 143.396z" style="fill:url(#n);stroke:none"/></g></g></g></svg>