<svg width="68" height="28" viewBox="0 0 68 28" fill="none">
    <path
        d="M67.3017 27.5376L63.1308 22.8611C65.1839 20.4717 66.4107 17.3668 66.4107 13.9936C66.4107 6.39112 60.1609 0.206898 52.4777 0.206898C44.7946 0.206898 38.5448 6.39112 38.5448 13.9936C38.5448 21.5961 44.7946 27.7803 52.4777 27.7803C55.112 27.7803 57.5783 27.052 59.6831 25.7871L61.2326 27.5376L67.3017 27.5376ZM55.2023 14.0447H49.1333L56.6227 22.3755C55.3702 22.9888 53.9627 23.321 52.4777 23.321C47.2868 23.321 43.0514 19.1301 43.0514 13.9936C43.0514 8.85713 47.2868 4.66618 52.4777 4.66618C57.6687 4.66618 61.9041 8.85713 61.9041 13.9936C61.9041 16.038 61.2326 17.929 60.0963 19.4751L55.2023 14.0447Z"
        fill="currentColor"></path>
    <path
        d="M13.9329 4.66618C17.0578 4.66618 19.9891 6.19945 21.7452 8.76769L22.2101 9.45767L26.1097 7.22164L25.5932 6.44222C23.0107 2.54515 18.659 0.206898 13.9329 0.206898C6.26272 0.206898 0 6.39111 0 14.0064C0 21.6217 6.24981 27.7931 13.9329 27.7931C18.6461 27.7931 22.9977 25.4676 25.5932 21.5578L26.1097 20.7784L22.2101 18.5423L21.7452 19.2323C19.9761 21.8005 17.0708 23.3338 13.9329 23.3338C8.74198 23.3338 4.50658 19.1429 4.50658 14.0064C4.50658 8.86991 8.74198 4.66618 13.9329 4.66618Z"
        fill="currentColor"></path>
    <path d="M34.5676 0.603016H30.0481V27.4993H34.5676V0.603016Z" fill="currentColor"></path>
</svg>