<svg width="182" height="33" viewBox="0 0 182 33" fill="none" xmlns="http://www.w3.org/2000/svg">
<g clip-path="url(#clip0_112_5775)">
<path fill-rule="evenodd" clip-rule="evenodd" d="M110.07 10.4276C105.216 10.4276 101.253 14.4 101.253 19.2662C101.253 24.1324 105.216 28.1048 110.07 28.1048C112.943 28.1048 115.518 26.7145 117.202 24.5296L114.428 22.3448C113.438 23.7351 111.853 24.5296 110.07 24.5296C107.692 24.5296 105.612 22.9407 104.918 20.7558H115.122H117.995H118.688C118.787 20.2593 118.787 19.7627 118.787 19.1669C118.886 14.4 114.924 10.4276 110.07 10.4276ZM104.918 17.8758C105.513 15.5917 107.593 13.9034 110.07 13.9034C112.546 13.9034 114.627 15.5917 115.221 17.8758H104.918Z" fill="white"/>
<path fill-rule="evenodd" clip-rule="evenodd" d="M56.5655 13.2083V4.5683H60.2309V27.7076H56.5655V25.3242C55.1786 27.2111 53.1973 28.2042 50.6216 28.2042C48.3432 28.2042 46.3619 27.3104 44.6778 25.6221C42.9937 23.9338 42.2012 21.8483 42.2012 19.2662C42.2012 16.6842 42.9937 14.698 44.6778 12.9104C46.3619 11.2221 48.2441 10.3283 50.6216 10.3283C53.1973 10.4276 55.1786 11.3214 56.5655 13.2083ZM47.3525 23.1393C48.3432 24.1324 49.631 24.629 51.117 24.629C52.6029 24.629 53.8908 24.1324 54.8814 23.1393C55.8721 22.1462 56.3674 20.8552 56.3674 19.2662C56.3674 17.6773 55.8721 16.3862 54.8814 15.3931C53.8908 14.4 52.6029 13.8042 51.117 13.8042C49.631 13.8042 48.3432 14.3007 47.3525 15.3931C46.3619 16.3862 45.8666 17.6773 45.8666 19.2662C45.8666 20.7559 46.3619 22.1462 47.3525 23.1393Z" fill="white"/>
<path fill-rule="evenodd" clip-rule="evenodd" d="M175.255 10.4276C177.137 10.4276 178.722 11.0235 179.911 12.3145C181.099 13.5062 181.694 15.1945 181.694 17.28V27.7076H178.028V17.4787C178.028 16.2869 177.731 15.3931 177.137 14.7973C176.542 14.1021 175.75 13.8042 174.759 13.8042C173.571 13.8042 172.679 14.2014 172.085 14.8966C171.391 15.6911 171.094 16.7835 171.094 18.1738V27.6083H167.429V17.4787C167.429 16.2869 167.131 15.3931 166.636 14.7973C166.042 14.2014 165.348 13.8042 164.259 13.8042C163.169 13.8042 162.277 14.2014 161.584 14.9959C160.89 15.7904 160.593 16.8828 160.593 18.2731V27.7076H156.928V10.8249H160.593V12.8111C161.683 11.1228 163.268 10.3283 165.447 10.3283C167.627 10.3283 169.212 11.2221 170.202 13.0097C171.193 11.3214 172.976 10.4276 175.255 10.4276Z" fill="white"/>
<path d="M99.0736 4.5683H95.4082V27.7076H99.0736V4.5683Z" fill="white"/>
<path fill-rule="evenodd" clip-rule="evenodd" d="M1.48597 14.5986H9.41112C10.798 14.5986 12.0859 14.0028 13.0765 13.109C13.9681 12.2152 14.5625 10.9241 14.5625 9.43448V1.48966V0H16.0484H30.71H32.1959V1.48966V16.0883V17.5779H30.71H22.7848C21.3979 17.5779 20.1101 18.1738 19.1194 19.0676C18.2278 19.9614 17.6335 21.2524 17.6335 22.7421V30.6869V32.1766H16.1475H1.48597H0V30.7862V16.1876V14.6979H1.48597V14.5986ZM9.41112 17.6772H2.97193V29.2966H14.5625V22.8414C14.5625 20.5572 15.454 18.571 16.94 17.0814C18.426 15.5917 20.5063 14.6979 22.6857 14.6979H29.1249V2.97931H17.6335V9.43448C17.6335 11.7186 16.7419 13.7048 15.2559 15.1945C13.7699 16.7834 11.6896 17.6772 9.41112 17.6772Z" fill="#33CC66"/>
<path fill-rule="evenodd" clip-rule="evenodd" d="M146.03 10.4276C141.175 10.4276 137.213 14.4 137.213 19.2662C137.213 24.1324 141.175 28.1048 146.03 28.1048C150.884 28.1048 154.846 24.1324 154.846 19.2662C154.846 14.4 150.884 10.4276 146.03 10.4276ZM146.03 13.9034C149.002 13.9034 151.379 16.2869 151.379 19.2662C151.379 22.2455 149.002 24.6289 146.03 24.6289C143.058 24.6289 140.68 22.2455 140.68 19.2662C140.68 16.2869 143.058 13.9034 146.03 13.9034Z" fill="white"/>
<path fill-rule="evenodd" clip-rule="evenodd" d="M129.189 10.4276C124.335 10.4276 120.372 14.4 120.372 19.2662C120.372 24.1324 124.335 28.1048 129.189 28.1048C132.062 28.1048 134.736 26.7145 136.321 24.5296L133.647 22.2455C132.656 23.6358 131.071 24.6289 129.189 24.6289C126.217 24.6289 123.839 22.2455 123.839 19.2662C123.839 16.2869 126.217 13.9034 129.189 13.9034C131.071 13.9034 132.656 14.7972 133.647 16.2869L136.321 14.0027C134.736 11.8179 132.161 10.4276 129.189 10.4276Z" fill="white"/>
<path fill-rule="evenodd" clip-rule="evenodd" d="M84.4115 10.4276C79.5573 10.4276 75.5947 14.4 75.5947 19.2662C75.5947 24.1324 79.5573 28.1048 84.4115 28.1048C87.2843 28.1048 89.86 26.7145 91.5441 24.5296L88.7703 22.3448C87.7796 23.7351 86.1946 24.5296 84.4115 24.5296C82.0339 24.5296 79.9536 22.9407 79.2601 20.7558H89.4637H92.3366H93.0301C93.1291 20.2593 93.1291 19.7627 93.1291 19.1669C93.3273 14.4 89.3647 10.4276 84.4115 10.4276ZM79.2601 17.8758C79.8545 15.5917 81.9348 13.9034 84.4115 13.9034C86.8881 13.9034 88.9684 15.5917 89.5628 17.8758H79.2601Z" fill="white"/>
<path d="M79.1914 4.5001V8.11439H72.6247V27.7H68.7914V8.11439H62.1914V4.5001H79.1914Z" fill="white"/>
</g>
<defs>
<clipPath id="clip0_112_5775">
<rect width="182" height="33" fill="white"/>
</clipPath>
</defs>
</svg>
