<?xml version="1.0" encoding="utf-8"?>
<!-- Generator: Adobe Illustrator 27.5.0, SVG Export Plug-In . SVG Version: 6.00 Build 0)  -->
<svg version="1.1" id="Layer_1" xmlns="http://www.w3.org/2000/svg" xmlns:xlink="http://www.w3.org/1999/xlink" x="0px" y="0px"
	 viewBox="0 0 430 430" style="enable-background:new 0 0 430 430;" xml:space="preserve">
<g>
	<rect x="0.4" y="1.3" style="fill:#BE1E2D;" width="429.1" height="26.8"/>
	<rect x="402.7" y="53.2" style="fill:#262262;" width="26.8" height="147.5"/>
	<rect x="0.4" y="53.2" style="fill:#262262;" width="26.8" height="147.5"/>
	<polygon style="fill:#262262;" points="161.4,200.8 161.4,53.2 133.4,53.2 107.7,99.4 82.1,53.2 54.1,53.2 54.1,200.8 80.9,200.8 
		80.9,106.3 107.7,154.6 134.5,106.3 134.5,200.8 	"/>
	<path style="fill:#262262;" d="M228.4,140.4c22.2,0,40.2-18.1,40.2-40.2v-6.7c0-22.2-18-40.2-40.2-40.2H215h-6.7h-20.1v147.5H215
		v-60.4L228.4,140.4L228.4,140.4z M215,80.1h13.4c7.4,0,13.4,6,13.4,13.4v6.7c0,7.4-6,13.4-13.4,13.4H215V80.1z"/>
	<polygon style="fill:#262262;" points="188.2,375.1 268.6,375.1 268.6,348.3 215,348.3 215,314.7 261.9,314.7 261.9,287.9 
		215,287.9 215,254.4 268.6,254.4 268.6,227.6 188.2,227.6 	"/>
	<path style="fill:#262262;" d="M295.5,375.1h20.1h6.7h13.4c22.2,0,40.2-18,40.2-40.2v-67c0-22.2-18-40.2-40.2-40.2h-13.4h-6.7
		h-20.1V375.1z M322.3,254.4h13.4c7.4,0,13.4,6,13.4,13.4v67.1c0,7.4-6,13.4-13.4,13.4h-13.4V254.4z"/>
	<polygon style="fill:#262262;" points="402.7,401.9 27.3,401.9 27.3,227.6 0.4,227.6 0.4,428.7 429.6,428.7 429.6,227.6 
		402.7,227.6 	"/>
	<path style="fill:#262262;" d="M375.9,100.2v-6.7c0-22.2-18-40.2-40.2-40.2h-13.4h-26.8v147.5h26.8v-60.4h9.9l16.5,60.4h27.8
		l-18.3-67.2C368.8,126.4,375.9,114.1,375.9,100.2 M349.1,100.2c0,7.4-6,13.4-13.4,13.4h-13.4V80.1h13.4c7.4,0,13.4,6,13.4,13.4
		V100.2z"/>
	<polygon style="fill:#262262;" points="54.1,375.1 80.9,375.1 80.9,280.7 107.7,328.9 134.5,280.7 134.5,375.1 161.4,375.1 
		161.4,227.6 133.4,227.6 107.7,273.7 82.1,227.6 54.1,227.6 	"/>
</g>
</svg>
