<svg xmlns="http://www.w3.org/2000/svg" width="2111.4" height="600.29" viewBox="578 571 2111.4 600.29" fill="none">
  <circle cx="878" cy="871" r="300" fill="white"/>
  <path d="M1557.13 871.725C1557.16 903.449 1551.17 930.443 1539.17 952.709C1527.26 974.975 1510.98 991.989 1490.35 1003.75C1469.81 1015.42 1446.71 1021.27 1421.05 1021.29C1395.2 1021.32 1371.99 1015.47 1351.43 1003.75C1330.87 992.025 1314.61 975.043 1302.66 952.801C1290.71 930.559 1284.71 903.623 1284.68 871.995C1284.65 840.271 1290.59 813.277 1302.5 791.011C1314.41 768.745 1330.63 751.779 1351.17 740.111C1371.71 728.348 1394.9 722.454 1420.76 722.428C1446.42 722.403 1469.53 728.251 1490.09 739.973C1510.75 751.601 1527.05 768.535 1539.01 790.777C1551.05 813.019 1557.09 840.002 1557.13 871.725ZM1494.77 871.787C1494.75 851.238 1491.65 833.911 1485.48 819.807C1479.41 805.704 1470.83 795.011 1459.74 787.731C1448.65 780.45 1435.68 776.817 1420.81 776.832C1405.94 776.846 1392.97 780.505 1381.9 787.808C1370.83 795.11 1362.22 805.819 1356.08 819.935C1350.03 834.051 1347.02 851.384 1347.04 871.933C1347.06 892.482 1350.11 909.809 1356.18 923.913C1362.35 938.016 1370.98 948.709 1382.07 955.989C1393.15 963.27 1406.13 966.903 1421 966.888C1435.87 966.874 1448.84 963.215 1459.91 955.912C1470.98 948.61 1479.54 937.9 1485.59 923.785C1491.73 909.669 1494.79 892.336 1494.77 871.787ZM1602.83 1017.13L1602.54 726.226L1663.05 726.166L1663.16 835.541L1665.01 835.539C1667.65 829.665 1671.48 823.695 1676.5 817.63C1681.6 811.47 1688.23 806.349 1696.37 802.269C1704.6 798.094 1714.83 796.001 1727.04 795.989C1742.95 795.973 1757.63 800.125 1771.09 808.445C1784.54 816.671 1795.31 829.113 1803.37 845.771C1811.44 862.335 1815.48 883.117 1815.51 908.117C1815.53 932.455 1811.62 953.008 1803.78 969.777C1796.03 986.451 1785.44 999.104 1772 1007.73C1758.65 1016.27 1743.7 1020.55 1727.12 1020.56C1715.38 1020.57 1705.39 1018.64 1697.15 1014.77C1689 1010.89 1682.32 1006.02 1677.1 1000.16C1671.89 994.197 1667.91 988.188 1665.15 982.13L1662.45 982.132L1662.49 1017.08L1602.83 1017.13ZM1661.96 907.985C1661.97 920.959 1663.78 932.273 1667.39 941.929C1670.99 951.584 1676.21 959.107 1683.03 964.498C1689.86 969.795 1698.15 972.438 1707.9 972.428C1717.75 972.419 1726.08 969.712 1732.89 964.307C1739.7 958.808 1744.86 951.227 1748.35 941.565C1751.94 931.807 1753.73 920.584 1753.72 907.894C1753.7 895.3 1751.94 884.222 1748.43 874.661C1744.91 865.1 1739.75 857.624 1732.92 852.233C1726.1 846.842 1717.72 844.152 1707.77 844.161C1697.92 844.171 1689.59 846.784 1682.78 851.999C1676.06 857.214 1670.91 864.605 1667.32 874.173C1663.73 883.741 1661.94 895.012 1661.96 907.985ZM1955.43 1021.05C1932.98 1021.07 1913.66 1016.54 1897.46 1007.47C1881.35 998.299 1868.93 985.337 1860.2 968.585C1851.48 951.737 1847.1 931.808 1847.08 908.796C1847.05 886.353 1851.39 866.652 1860.09 849.693C1868.78 832.733 1881.03 819.511 1896.84 810.026C1912.74 800.54 1931.39 795.787 1952.79 795.766C1967.18 795.751 1980.58 798.058 1992.99 802.686C2005.5 807.219 2016.4 814.074 2025.69 823.25C2035.07 832.427 2042.37 843.973 2047.59 857.888C2052.82 871.709 2055.44 887.899 2055.46 906.46L2055.47 923.079L1871.24 923.261L1871.2 885.761L1998.47 885.635C1998.47 876.923 1996.56 869.207 1992.77 862.488C1988.98 855.768 1983.71 850.517 1976.99 846.736C1970.35 842.86 1962.63 840.926 1953.83 840.935C1944.64 840.944 1936.5 843.083 1929.4 847.351C1922.4 851.525 1916.91 857.165 1912.94 864.271C1908.97 871.283 1906.94 879.097 1906.86 887.715L1906.89 923.368C1906.9 934.163 1908.9 943.489 1912.89 951.345C1916.97 959.201 1922.7 965.256 1930.09 969.51C1937.48 973.764 1946.24 975.886 1956.38 975.876C1963.1 975.869 1969.25 974.916 1974.84 973.017C1980.42 971.117 1985.2 968.272 1989.18 964.48C1993.15 960.688 1996.18 956.045 1998.25 950.55L2054.22 954.188C2051.4 967.638 2045.58 979.386 2036.79 989.433C2028.09 999.385 2016.82 1007.16 2003 1012.76C1989.28 1018.27 1973.42 1021.03 1955.43 1021.05ZM2155.28 725.679L2155.56 1016.59L2095.05 1016.65L2094.77 725.739L2155.28 725.679ZM2204.04 1016.54L2203.82 798.358L2264.33 798.299L2264.55 1016.48L2204.04 1016.54ZM2234.19 770.203C2225.2 770.212 2217.47 767.237 2211.03 761.277C2204.68 755.223 2201.5 747.982 2201.49 739.554C2201.48 731.22 2204.65 724.068 2210.99 718.096C2217.42 712.029 2225.13 708.991 2234.13 708.982C2243.13 708.973 2250.8 711.996 2257.15 718.05C2263.6 724.009 2266.82 731.156 2266.83 739.489C2266.84 747.917 2263.63 755.165 2257.19 761.232C2250.86 767.204 2243.19 770.194 2234.19 770.203ZM2373.41 890.236L2373.53 1016.37L2313.02 1016.43L2312.81 798.251L2370.48 798.194L2370.51 836.688L2373.07 836.685C2377.89 823.991 2385.97 813.945 2397.33 806.548C2408.69 799.055 2422.46 795.301 2438.66 795.285C2453.81 795.27 2467.02 798.572 2478.3 805.189C2489.57 811.807 2498.34 821.268 2504.6 833.572C2510.86 845.782 2514 860.362 2514.02 877.313L2514.16 1016.23L2453.65 1016.29L2453.52 888.168C2453.6 874.816 2450.18 864.403 2443.26 856.928C2436.34 849.36 2426.82 845.581 2414.7 845.593C2406.56 845.601 2399.36 847.36 2393.11 850.87C2386.96 854.38 2382.14 859.498 2378.64 866.225C2375.24 872.857 2373.49 880.861 2373.41 890.236ZM2678.96 797.889L2679.01 843.343L2544.35 843.476L2544.3 798.022L2678.96 797.889ZM2575.34 1016.17L2575.11 782.224C2575.1 766.41 2578.16 753.291 2584.31 742.868C2590.55 732.446 2599.06 724.625 2609.85 719.406C2620.64 714.187 2632.9 711.57 2646.63 711.557C2655.91 711.548 2664.39 712.249 2672.06 713.662C2679.83 715.075 2685.61 716.348 2689.4 717.48L2678.64 762.946C2676.28 762.19 2673.34 761.483 2669.84 760.824C2666.43 760.164 2662.92 759.836 2659.32 759.84C2650.42 759.849 2644.22 761.938 2640.72 766.108C2637.22 770.184 2635.48 775.914 2635.48 783.301L2635.71 1016.11L2575.34 1016.17Z" fill="white"/>
</svg>
