<svg width="654" height="152" viewBox="0 0 654 152" fill="none" xmlns="http://www.w3.org/2000/svg">
<path d="M236.25 128C236.25 115.2 236.25 102.3 236.25 89.3C236.25 76.2 236.25 63.25 236.25 50.45C240.35 50.45 244.5 50.45 248.7 50.45C252.9 50.45 257 50.45 261 50.45C261 51.15 261 51.85 261 52.55C261 53.25 261 53.95 261 54.65C264.1 52.45 267.6 50.8 271.5 49.7C275.4 48.6 279.65 48.3 284.25 48.8C284.25 52.8 284.25 56.85 284.25 60.95C284.25 65.05 284.25 69.1 284.25 73.1C276.35 72 270.5 72.7 266.7 75.2C262.9 77.6 261 81.55 261 87.05C261 93.75 261 100.55 261 107.45C261 114.35 261 121.2 261 128C257 128 252.9 128 248.7 128C244.5 128 240.35 128 236.25 128Z" fill="white"/>
<path d="M302.63 152C304.63 146.7 306.68 141.35 308.78 135.95C310.98 130.65 313.08 125.4 315.08 120.2C310.38 108.7 305.58 97.1 300.68 85.4C295.88 73.6 291.13 61.95 286.43 50.45C290.83 50.45 295.23 50.45 299.63 50.45C304.03 50.45 308.38 50.45 312.68 50.45C315.28 56.85 317.88 63.35 320.48 69.95C323.18 76.55 325.83 83.1 328.43 89.6C330.83 83.1 333.28 76.55 335.78 69.95C338.28 63.35 340.73 56.85 343.13 50.45C347.43 50.45 351.73 50.45 356.03 50.45C360.33 50.45 364.63 50.45 368.93 50.45C362.23 67.15 355.48 84.1 348.68 101.3C341.98 118.4 335.28 135.3 328.58 152C324.28 152 319.93 152 315.53 152C311.23 152 306.93 152 302.63 152Z" fill="white"/>
<path d="M401.936 128C397.936 128 393.836 128 389.636 128C385.436 128 381.286 128 377.186 128C377.186 109.9 377.186 91.65 377.186 73.25C377.186 54.85 377.186 36.6 377.186 18.5C381.286 18.5 385.436 18.5 389.636 18.5C393.836 18.5 397.936 18.5 401.936 18.5C401.936 24.5 401.936 30.55 401.936 36.65C401.936 42.75 401.936 48.8 401.936 54.8C404.436 52.8 407.286 51.25 410.486 50.15C413.686 48.95 417.086 48.35 420.686 48.35C425.686 48.35 430.436 49.35 434.936 51.35C439.436 53.25 443.386 56 446.786 59.6C450.286 63.2 452.986 67.5 454.886 72.5C456.886 77.5 457.886 83.05 457.886 89.15C457.886 95.15 456.886 100.65 454.886 105.65C452.986 110.65 450.286 115 446.786 118.7C443.386 122.3 439.436 125.1 434.936 127.1C430.436 129.1 425.636 130.1 420.536 130.1C416.936 130.1 413.536 129.5 410.336 128.3C407.236 127.2 404.436 125.6 401.936 123.5C401.936 124.2 401.936 124.95 401.936 125.75C401.936 126.45 401.936 127.2 401.936 128ZM417.236 108.2C422.136 108.2 425.986 106.5 428.786 103.1C431.686 99.6 433.136 94.95 433.136 89.15C433.136 83.35 431.686 78.75 428.786 75.35C425.986 71.95 422.136 70.25 417.236 70.25C412.436 70.25 408.586 72 405.686 75.5C402.786 78.9 401.336 83.45 401.336 89.15C401.336 94.85 402.786 99.45 405.686 102.95C408.586 106.45 412.436 108.2 417.236 108.2Z" fill="white"/>
<path d="M495.686 128C491.686 128 487.586 128 483.386 128C479.186 128 475.036 128 470.936 128C470.936 109.9 470.936 91.65 470.936 73.25C470.936 54.85 470.936 36.6 470.936 18.5C475.036 18.5 479.186 18.5 483.386 18.5C487.586 18.5 491.686 18.5 495.686 18.5C495.686 24.5 495.686 30.55 495.686 36.65C495.686 42.75 495.686 48.8 495.686 54.8C498.186 52.8 501.036 51.25 504.236 50.15C507.436 48.95 510.836 48.35 514.436 48.35C519.436 48.35 524.186 49.35 528.686 51.35C533.186 53.25 537.136 56 540.536 59.6C544.036 63.2 546.736 67.5 548.636 72.5C550.636 77.5 551.636 83.05 551.636 89.15C551.636 95.15 550.636 100.65 548.636 105.65C546.736 110.65 544.036 115 540.536 118.7C537.136 122.3 533.186 125.1 528.686 127.1C524.186 129.1 519.386 130.1 514.286 130.1C510.686 130.1 507.286 129.5 504.086 128.3C500.986 127.2 498.186 125.6 495.686 123.5C495.686 124.2 495.686 124.95 495.686 125.75C495.686 126.45 495.686 127.2 495.686 128ZM510.986 108.2C515.886 108.2 519.736 106.5 522.536 103.1C525.436 99.6 526.886 94.95 526.886 89.15C526.886 83.35 525.436 78.75 522.536 75.35C519.736 71.95 515.886 70.25 510.986 70.25C506.186 70.25 502.336 72 499.436 75.5C496.536 78.9 495.086 83.45 495.086 89.15C495.086 94.85 496.536 99.45 499.436 102.95C502.336 106.45 506.186 108.2 510.986 108.2Z" fill="white"/>
<path d="M577.136 41.6C574.236 41.6 571.586 40.9 569.186 39.5C566.886 38.1 565.036 36.25 563.636 33.95C562.236 31.65 561.536 29.1 561.536 26.3C561.536 23.5 562.236 21 563.636 18.8C565.036 16.5 566.886 14.65 569.186 13.25C571.586 11.85 574.236 11.15 577.136 11.15C579.936 11.15 582.486 11.85 584.786 13.25C587.186 14.65 589.086 16.5 590.486 18.8C591.886 21 592.586 23.5 592.586 26.3C592.586 29.1 591.886 31.65 590.486 33.95C589.086 36.25 587.186 38.1 584.786 39.5C582.486 40.9 579.936 41.6 577.136 41.6ZM564.686 128C564.686 115.2 564.686 102.3 564.686 89.3C564.686 76.2 564.686 63.25 564.686 50.45C568.786 50.45 572.936 50.45 577.136 50.45C581.336 50.45 585.436 50.45 589.436 50.45C589.436 63.25 589.436 76.2 589.436 89.3C589.436 102.3 589.436 115.2 589.436 128C585.436 128 581.336 128 577.136 128C572.936 128 568.786 128 564.686 128Z" fill="white"/>
<path d="M614.809 128C614.809 118.8 614.809 109.55 614.809 100.25C614.809 90.95 614.809 81.75 614.809 72.65C612.809 72.65 610.759 72.65 608.659 72.65C606.659 72.65 604.659 72.65 602.659 72.65C602.659 68.95 602.659 65.25 602.659 61.55C602.659 57.85 602.659 54.15 602.659 50.45C604.659 50.45 606.659 50.45 608.659 50.45C610.759 50.45 612.809 50.45 614.809 50.45C614.809 46.95 614.809 43.5 614.809 40.1C614.809 36.6 614.809 33.15 614.809 29.75C618.909 29.75 623.059 29.75 627.259 29.75C631.459 29.75 635.559 29.75 639.559 29.75C639.559 33.15 639.559 36.6 639.559 40.1C639.559 43.5 639.559 46.95 639.559 50.45C641.859 50.45 644.209 50.45 646.609 50.45C649.009 50.45 651.359 50.45 653.659 50.45C653.659 54.15 653.659 57.85 653.659 61.55C653.659 65.25 653.659 68.95 653.659 72.65C651.359 72.65 649.009 72.65 646.609 72.65C644.209 72.65 641.859 72.65 639.559 72.65C639.559 81.75 639.559 90.95 639.559 100.25C639.559 109.55 639.559 118.8 639.559 128C635.559 128 631.459 128 627.259 128C623.059 128 618.909 128 614.809 128Z" fill="white"/>
<path d="M114.25 42.32C122.7 42.32 129.18 35.24 129.18 26.79C129.18 20.6 125.82 15.26 120.1 12.89C114.38 10.52 107.58 11.62 103.43 16.21C99.52 20.54 97.75 27.16 100.11 32.88C102.48 38.6 108.06 42.32 114.24 42.32H114.25ZM138.28 16.8C153.66 16.84 187.15 28.71 187.15 34.8C187.15 47.43 173.87 68.8 167.83 73.83C170.93 66.25 174.33 56.06 174.37 47.1C164.52 49.48 152.43 54.22 141.48 61.35C129.7 69.03 119.12 79.35 112.69 91.06C105.94 103.33 104.2 114.43 107.32 124.01C109.86 131.82 115.8 138.64 124.01 144.67H82.75C77.29 139.21 73.6 132.43 73.72 121.04C73.79 113.87 75.36 104.81 80.18 95.2C54.22 122.98 59.27 139.74 49.56 141.63C40.07 143.47 24.41 128.52 18.27 122.07C20.82 129.02 30.33 139.99 39.04 144.67H4.50001C-1.40999 122.17 -0.529994 90.17 6.29001 67.23C13.41 72.13 22.44 82.28 27.72 89.69C38.81 62.29 67.91 33.99 87.19 24.71C88.16 10.67 99.56 -0.0299981 113.66 1.89278e-06C124.95 -0.0199981 134.35 6.64 138.29 16.8H138.28Z" fill="white"/>
<path d="M117.66 34.68C121.852 34.68 125.25 31.2818 125.25 27.09C125.25 22.8982 121.852 19.5 117.66 19.5C113.468 19.5 110.07 22.8982 110.07 27.09C110.07 31.2818 113.468 34.68 117.66 34.68Z" fill="white"/>
<path d="M127.86 118.47C128.77 115.85 132.57 111 137.98 105.78C144.78 99.22 153.88 92.29 161.27 87.39C151.32 113.99 151.74 127 191.73 144.67C183.06 144.71 157.63 144.67 148 144.67C140.19 139.72 125.7 124.74 127.87 118.47H127.86Z" fill="white"/>
</svg>
