<?xml version="1.0" encoding="UTF-8"?><svg version="1.2" viewBox="0 0 89.888 104.6" xmlns="http://www.w3.org/2000/svg"><defs><clipPath id="clipPath692"><path d="m150.97 50.793c-9.0676 0.38672-19.665 3.9531-25.853 8.6016-5.6199 4.2187-10.259 10.479-8.4535 16.562 9.8948 0.19141 20.129-3.4648 26.071-8.1797 5.5441-4.4062 9.7638-10.628 8.2357-16.983zm3.353 24.483c-15.275 0-21.728 4.4927-32.318 4.4927-10.918 0-19.229-4.4839-32.426-4.4839-12.976 0-26.766 4.8789-35.512 13.207-0.05056 0.05078-0.10827 0.10058-0.15865 0.15528-3.7319 3.6133-6.1045 8.1953-7.0328 13.348-0.75143 4.1445-0.55568 8.6684 0.62513 13.352 1.105 4.3594 3.0688 8.8677 5.9293 13.352 2.6647 4.1758 6.1117 8.3398 10.374 12.352 0.35362 0.33203 0.71355 0.66748 1.0798 1.0034 7.0027 6.4453 16.197 13.274 28.036 13.34 11.076 0.0625 14.215-4.3716 29.237-4.4224 15.028-0.0508 17.87 4.4688 28.946 4.4062 11.347-0.0625 20.704-7.0112 27.669-13.332 0.68195-0.61719 1.3395-1.2275 1.9772-1.8252 4.7296-4.4531 6.7044-6.8628 10.121-11.515 0.27784-0.375 0.56356-0.76562 0.86666-1.1719-9.9579-2.3281-17.025-6.855-20.845-12.183-3.0057-4.1797-3.9963-8.8604-2.8155-13.356 1.3134-4.9766 5.3042-9.73 12.2-13.343 1.9386-1.0195 4.1092-1.9448 6.5213-2.7612-8.714-6.7226-20.944-10.614-32.474-10.614z"/></clipPath></defs><g transform="matrix(.61862 0 0 1 -28.722 -50.793)" clip-path="url(#clipPath692)"><g stroke-linecap="round"><rect x="24.863" y="37.453" width="188.44" height="64.547" fill="#75bd21"/><rect x="24.863" y="88.648" width="188.44" height="26.699" fill="#ffc728"/><rect x="24.863" y="102" width="188.44" height="26.695" fill="#ff661c"/><rect x="24.863" y="115.35" width="188.44" height="26.699" fill="#cf0f2b"/><rect x="24.863" y="128.7" width="188.44" height="26.68" fill="#b01cab"/><rect x="24.863" y="142.06" width="188.44" height="26.68" fill="#00a1de"/></g></g></svg>
