<svg xmlns="http://www.w3.org/2000/svg" viewBox="0 0 180 180"><path fill="#000" d="M0 0h180v180H0Z"/><path fill="#fff" d="M101.6586 41.832c-9.388-.02-16.9789 7.105-17.6247 16.453-12.837 6.1789-32.2116 25.0206-39.5956 43.264-3.5155-4.9336-9.5276-11.691-14.2683-14.9536-4.5409 15.274-5.1275 36.5798-1.1925 51.5608h22.9981c-5.7993-3.116-12.1322-10.4198-13.83-15.0473 4.0881 4.2946 14.5155 14.249 20.8342 13.0238 6.465-1.2584 3.1021-12.4186 20.3868-30.9151-3.2092 6.3985-4.2539 12.4308-4.3005 17.2047-.08 7.5837 2.3765 12.0985 6.0119 15.734h27.4716c-5.4664-4.015-9.421-8.556-11.1122-13.756-2.0774-6.3786-.9194-13.7687 3.5749-21.9383 4.2812-7.7968 11.3263-14.6687 19.1696-19.7822 7.2908-4.7473 15.341-7.9033 21.8993-9.488-.0266 5.9658-2.2911 12.7509-4.3552 17.7978 4.0216-3.349 12.8639-17.5772 12.8639-25.9865 0-4.054-22.2885-11.955-32.5316-11.9848-2.6233-6.7647-8.8826-11.1996-16.3997-11.1863zm-.169 7.783c1.4994-.0587 3.0283.2081 4.4565.7999 3.8085 1.578 6.0457 5.1324 6.0457 9.2538 0 5.6262-4.3143 10.341-9.9405 10.341h-.007c-4.1147 0-7.8306-2.4764-9.4086-6.285-1.5713-3.8084-.3926-8.2161 2.2107-11.0991 1.727-1.91 4.1435-2.9126 6.6426-3.0105zm2.8323 5.2005a5.0536 5.0536 0 0 0-5.0535 5.0535 5.0536 5.0536 0 0 0 5.0535 5.0535 5.0536 5.0536 0 0 0 5.0535-5.0535 5.0536 5.0536 0 0 0-5.0535-5.0535zm29.036 45.203c-4.9204 3.2625-10.9788 7.8757-15.5063 12.2435-3.6021 3.4756-6.133 6.7058-6.7389 8.4502h.008c-1.4448 4.1747 8.2022 14.1482 13.4023 17.444 6.4118 0 23.344.0266 29.1166 0-26.6264-11.765-26.9066-20.4269-20.2817-38.1377z"/></svg>