<?xml version="1.0" encoding="UTF-8" standalone="no"?>
<svg
   xmlns:dc="http://purl.org/dc/elements/1.1/"
   xmlns:cc="http://creativecommons.org/ns#"
   xmlns:rdf="http://www.w3.org/1999/02/22-rdf-syntax-ns#"
   xmlns:svg="http://www.w3.org/2000/svg"
   xmlns="http://www.w3.org/2000/svg"
   xmlns:xlink="http://www.w3.org/1999/xlink"
   xmlns:sodipodi="http://sodipodi.sourceforge.net/DTD/sodipodi-0.dtd"
   xmlns:inkscape="http://www.inkscape.org/namespaces/inkscape"
   id="SVGRoot"
   version="1.1"
   viewBox="0 0 1000 1000"
   height="1000px"
   width="1000px"
   inkscape:version="1.0 (4035a4fb49, 2020-05-01)"
   sodipodi:docname="AVG Secure Browser Icon.svg">
  <defs
     id="defs885">
    <linearGradient
       inkscape:collect="always"
       id="linearGradient1553">
      <stop
         style="stop-color:#292c3d;stop-opacity:1;"
         offset="0"
         id="stop1549" />
      <stop
         style="stop-color:#292c3d;stop-opacity:0;"
         offset="1"
         id="stop1551" />
    </linearGradient>
    <linearGradient
       inkscape:collect="always"
       id="linearGradient1535">
      <stop
         style="stop-color:#fea226;stop-opacity:1;"
         offset="0"
         id="stop1531" />
      <stop
         style="stop-color:#fea226;stop-opacity:0;"
         offset="1"
         id="stop1533" />
    </linearGradient>
    <linearGradient
       inkscape:collect="always"
       id="linearGradient1517">
      <stop
         style="stop-color:#dc0f36;stop-opacity:1;"
         offset="0"
         id="stop1513" />
      <stop
         style="stop-color:#dc0f36;stop-opacity:0;"
         offset="1"
         id="stop1515" />
    </linearGradient>
    <linearGradient
       inkscape:collect="always"
       id="linearGradient1499">
      <stop
         style="stop-color:#1e85e9;stop-opacity:1;"
         offset="0"
         id="stop1495" />
      <stop
         style="stop-color:#1e85e9;stop-opacity:0;"
         offset="1"
         id="stop1497" />
    </linearGradient>
    <inkscape:perspective
       sodipodi:type="inkscape:persp3d"
       inkscape:vp_x="1382.5243 : 2426.2136 : 1"
       inkscape:vp_y="0 : 1000 : 0"
       inkscape:vp_z="2382.5243 : 2426.2136 : 1"
       inkscape:persp3d-origin="1882.5243 : 2259.5469 : 1"
       id="perspective1459" />
    <linearGradient
       inkscape:collect="always"
       xlink:href="#linearGradient1499"
       id="linearGradient1501"
       x1="407.767"
       y1="739.80585"
       x2="-279.98236"
       y2="-719.57812"
       gradientUnits="userSpaceOnUse"
       gradientTransform="matrix(1.1511038,0,0,1.1511038,-75.834118,-38.966979)" />
    <linearGradient
       inkscape:collect="always"
       xlink:href="#linearGradient1517"
       id="linearGradient1519"
       x1="400.97086"
       y1="114.56311"
       x2="2376.1101"
       y2="1070.3484"
       gradientUnits="userSpaceOnUse"
       gradientTransform="matrix(1.1511038,0,0,1.1511038,-75.834118,-38.966979)" />
    <linearGradient
       inkscape:collect="always"
       xlink:href="#linearGradient1535"
       id="linearGradient1537"
       x1="795.14563"
       y1="417.47574"
       x2="-589.08026"
       y2="1790.299"
       gradientUnits="userSpaceOnUse"
       gradientTransform="matrix(1.1511038,0,0,1.1511038,-75.834118,-38.966979)" />
    <linearGradient
       inkscape:collect="always"
       xlink:href="#linearGradient1553"
       id="linearGradient1555"
       x1="504.21808"
       y1="524.75726"
       x2="499.51456"
       y2="154.85437"
       gradientUnits="userSpaceOnUse"
       gradientTransform="matrix(1.1511038,0,0,1.1511038,-75.834118,-38.966979)" />
  </defs>
  <sodipodi:namedview
     id="base"
     pagecolor="#ffffff"
     bordercolor="#666666"
     borderopacity="1.0"
     inkscape:pageopacity="0.0"
     inkscape:pageshadow="2"
     inkscape:zoom="1.45664"
     inkscape:cx="840.44565"
     inkscape:cy="430.32082"
     inkscape:document-units="px"
     inkscape:current-layer="layer1"
     inkscape:document-rotation="0"
     showgrid="false"
     inkscape:window-width="1366"
     inkscape:window-height="705"
     inkscape:window-x="-8"
     inkscape:window-y="-8"
     inkscape:window-maximized="1" />
  <metadata
     id="metadata888">
    <rdf:RDF>
      <cc:Work
         rdf:about="">
        <dc:format>image/svg+xml</dc:format>
        <dc:type
           rdf:resource="http://purl.org/dc/dcmitype/StillImage" />
        <dc:title />
      </cc:Work>
    </rdf:RDF>
  </metadata>
  <g
     inkscape:label="Capa 1"
     inkscape:groupmode="layer"
     id="layer1">
    <path
       style="fill:url(#linearGradient1501);fill-opacity:1;stroke:none;stroke-width:1.1511px;stroke-linecap:butt;stroke-linejoin:miter;stroke-opacity:1"
       d="M 385.72496,92.907049 C 326.74585,174.13397 266.05186,254.74355 258.32124,354.41993 c -9.48403,62.9924 1.6175,129.61753 27.93942,198.92862 23.80472,59.18059 66.0946,109.95886 112.87522,158.69585 33.05735,23.76136 65.61345,49.02648 101.69946,63.70187 C 469.32475,792.31614 462.38524,799.0397 393.548,812.62629 334.06026,817.91747 281.36325,811.6013 218.0885,798.0978 187.82798,763.14917 153.64195,731.34094 133.15269,688.57531 112.42985,646.47993 93.830308,604.38454 91.802358,562.28916 86.234248,506.88095 85.071878,452.57415 96.272658,401.35815 116.35277,329.92556 151.70365,267.67546 199.08969,213.04652 246.07876,159.6915 293.68101,134.98295 342.69827,107.99432 Z"
       id="path1493"
       sodipodi:nodetypes="ccccccccccccc" />
    <path
       style="fill:url(#linearGradient1519);fill-opacity:1;stroke:none;stroke-width:1.1511px;stroke-linecap:butt;stroke-linejoin:miter;stroke-opacity:1"
       d="m 258.32124,354.41993 c 45.04459,-23.87262 80.61699,-57.21744 140.81464,-65.937 46.19316,-12.38808 92.38632,-16.76291 138.57949,-12.29334 70.82895,3.1691 128.04867,27.72416 184.40011,53.64367 41.45109,24.90849 74.49613,56.82202 103.33611,92.23977 39.40125,56.22669 63.85257,104.98771 83.29917,160.33251 18.00549,-43.27502 7.16021,-93.76273 10.05818,-140.81464 C 907.07773,362.58233 878.3932,317.48039 852.60075,266.59431 815.0232,211.97119 768.47204,169.34164 714.81152,138.8071 675.13634,114.35434 631.03784,95.398379 580.91736,87.658119 c -37.21619,-5.89008 -127.84507,-15.1309 -195.1924,5.24893 -32.21779,37.753021 -60.5377,78.104631 -83.81823,121.815831 -22.62216,44.30892 -39.99534,89.59623 -43.58549,139.69705 z"
       id="path1503"
       sodipodi:nodetypes="ccccccccccccc" />
    <path
       style="fill:url(#linearGradient1537);fill-opacity:1;stroke:none;stroke-width:1.1511px;stroke-linecap:butt;stroke-linejoin:miter;stroke-opacity:1"
       d="m 218.0885,798.0978 c 57.93697,11.43714 116.05282,20.7278 175.4595,14.52849 33.09458,-8.9585 57.86893,-7.51673 107.28734,-36.88002 66.98158,-22.00821 91.30838,-53.03178 130.75645,-86.05339 45.97494,-34.80666 62.12125,-89.59134 89.40611,-131.87403 19.56916,-39.4877 22.2466,-78.9754 30.17457,-118.4631 5.98924,-29.4747 1.14121,-58.94942 1.71026,-88.42412 29.57978,22.1105 58.46237,48.05459 86.57828,90.65927 36.41334,46.93822 51.47775,93.87643 69.28975,140.81464 -3.55545,42.03456 -26.15102,78.3571 -43.58549,116.22795 -33.4714,44.48293 -60.84863,94.50603 -109.52249,125.16856 -37.72769,30.52479 -83.37383,52.14131 -132.9916,69.28975 -40.75661,10.84632 -90.76542,15.21609 -146.40252,15.64606 -43.88426,-6.48045 -89.16917,-10.15955 -127.40372,-27.9394 -56.56113,-15.77085 -88.88473,-53.5758 -130.75644,-82.70066"
       id="path1521"
       sodipodi:nodetypes="ccccccccccccccc" />
    <path
       style="fill:url(#linearGradient1555);fill-opacity:1;stroke:none;stroke-width:1.1511px;stroke-linecap:butt;stroke-linejoin:miter;stroke-opacity:1"
       d="m 484.0717,528.48247 c -26.5744,-8.60305 -39.8692,-27.04285 -37.9976,-56.717 1.44661,-41.82393 25.67748,-48.43583 49.73214,-55.32004 l 19.55759,-1.11758 c 24.93423,5.61286 39.34465,21.74954 46.37943,45.26185 2.25873,27.12616 -0.47912,51.2914 -26.387,61.72625 l -9.37545,5.32834 -0.55878,71.52489 -39.11518,1.67637 z"
       id="path1539"
       sodipodi:nodetypes="cccccccccc" />
    <path
       style="fill:#e0e0e0;fill-opacity:1;stroke:none;stroke-width:1.1511px;stroke-linecap:butt;stroke-linejoin:miter;stroke-opacity:1"
       d="m 258.32124,354.41993 c -5.05959,47.63782 -7.66939,99.69368 12.85214,150.31403 12.13986,69.54166 50.627,111.62563 83.25945,160.37224 C 330.39677,612.30389 303.30652,560.68931 297.43642,500.82246 290.84507,457.00742 285.48059,413.9285 286.26066,374.53631 354.06383,323.17942 390.5678,322.38275 442.72137,296.30597 l 54.89683,-20.25196 c -17.08809,-1.3805 -35.94343,-0.69201 -69.42533,6.1244 -49.44732,14.85496 -44.29846,-8.65644 -169.87163,72.24152 z"
       id="path1557"
       sodipodi:nodetypes="ccccccccc" />
  </g>
</svg>
