<?xml version="1.0" encoding="UTF-8" standalone="no"?>
<svg
   width="205.47533"
   height="204.8"
   viewBox="0 0 205.47533 204.8"
   fill="none"
   version="1.1"
   id="svg47"
   sodipodi:docname="cốc cốc logo.svg"
   inkscape:version="1.1 (c68e22c387, 2021-05-23)"
   xmlns:inkscape="http://www.inkscape.org/namespaces/inkscape"
   xmlns:sodipodi="http://sodipodi.sourceforge.net/DTD/sodipodi-0.dtd"
   xmlns="http://www.w3.org/2000/svg"
   xmlns:svg="http://www.w3.org/2000/svg">
  <sodipodi:namedview
     id="namedview49"
     pagecolor="#ffffff"
     bordercolor="#666666"
     borderopacity="1.0"
     inkscape:pageshadow="2"
     inkscape:pageopacity="0.0"
     inkscape:pagecheckerboard="0"
     showgrid="false"
     inkscape:zoom="1.7334337"
     inkscape:cx="184.89314"
     inkscape:cy="212.58384"
     inkscape:window-width="1920"
     inkscape:window-height="1002"
     inkscape:window-x="-8"
     inkscape:window-y="-8"
     inkscape:window-maximized="1"
     inkscape:current-layer="svg47" />
  <path
     d="m 205.47532,102.4 c 0,56.51763 -46.03391,102.4 -102.73791,102.4 C 46.033766,204.8 0,158.91763 0,102.4 0,46.338253 45.119181,0.759644 101.21318,0 c 0.45722,0 1.06701,0 1.52423,0 h 94.65907 c 0.15257,0 0.15257,0 0.30464,0 3.04896,0 5.48761,2.430868 5.48761,5.46944 0,0.911565 -0.30464,1.82313 -0.76237,2.582784 L 187.18361,44.211302 C 198.61606,60.771328 205.47532,80.825856 205.47532,102.4 Z"
     fill="#ffffff"
     id="path2"
     style="stroke-width:5.12" />
  <path
     d="m 129.57542,24.059494 -13.56339,33.375642 c -0.74189,1.901056 -2.96704,2.85184 -4.98073,2.112512 -1.58925,-0.633856 -2.43712,-2.112512 -2.33114,-3.69664 l 1.80122,-35.910656 c 0.31795,-5.492173 4.98073,-9.611315 10.38489,-9.400064 5.51015,0.316826 9.64301,4.964096 9.43104,10.350643 -0.10598,1.056154 -0.42393,2.112359 -0.74189,3.168563 z"
     fill="#f16037"
     id="path4"
     style="stroke-width:5.12" />
  <path
     fill-rule="evenodd"
     clip-rule="evenodd"
     d="m 162.95526,8.533146 h 22.14707 c 2.43712,0 4.76877,2.429235 4.66279,4.647219 0,2.617805 -1.25184,3.699917 -2.1033,4.435814 -0.042,0.03605 -0.0824,0.07127 -0.12237,0.105779 L 134.55616,68.630016 V 68.736 c -1.69523,1.795584 -4.5568,1.795584 -6.25203,0 -1.37779,-1.373184 -1.58976,-3.379712 -0.74189,-5.069824 0,0 25.32608,-47.211622 27.33978,-50.908314 2.01318,-3.69664 6.35801,-4.224716 8.05324,-4.224716 z M 195.6992,101.6873 c 0,51.54201 -41.85702,93.26182 -93.56902,93.26182 -51.605969,0 -93.568926,-41.71981 -93.568926,-93.26182 0,-47.000068 34.863156,-85.867882 80.216986,-92.310634 0.198656,-0.04951 0.397824,-0.07583 0.585216,-0.100711 0.212992,-0.02816 0.411648,-0.05443 0.580608,-0.110541 1.483264,0.105626 2.755072,1.056205 3.179008,2.534861 l 0.105984,1.373031 3.602944,41.930854 0.105984,1.161728 c -0.105984,1.478656 -1.165824,2.640384 -2.543616,3.062784 -0.211456,0 -0.423424,0 -0.635392,0.105472 -19.92192,3.908096 -35.075072,21.441024 -35.075072,42.459136 0,23.86995 19.392,43.30342 43.446276,43.30342 23.9488,0 43.3408,-19.328 43.44678,-43.09248 v -0.10547 -0.21145 -0.21095 c 0.10547,-1.478654 1.05933,-2.640382 2.43712,-3.062782 l 0.6359,-0.105984 42.06848,-8.66048 0.95386,-0.211456 h 0.21196 c 1.58976,0 2.96704,1.056256 3.39098,2.640384 0,0.147456 0.023,0.2944 0.0471,0.452096 0.0287,0.18176 0.0589,0.377856 0.0589,0.60416 0.21197,2.640384 0.31796,5.597696 0.31796,8.555012 z m -63.89811,0.002 c 0,16.26521 -13.24595,29.57312 -29.56493,29.57312 -16.318976,0 -29.670912,-13.20244 -29.670912,-29.57312 0,-16.26522 13.245952,-29.573636 29.670912,-29.573636 16.31898,0.105984 29.56493,13.308416 29.56493,29.573636 z"
     fill="url(#paint0_linear)"
     id="path6"
     style="fill:url(#paint0_linear);stroke-width:5.12" />
  <path
     d="m 180.33408,74.650112 -34.3337,11.08992 c -2.01318,0.633856 -4.13235,-0.4224 -4.76825,-2.428928 -0.52992,-1.58464 0.10598,-3.27424 1.27129,-4.225024 l 28.71706,-21.75744 c 4.34483,-3.27424 10.59686,-2.42944 13.88185,1.901056 3.28499,4.330496 2.43712,10.562048 -1.9072,13.836288 -0.84787,0.739328 -1.90771,1.2672 -2.86105,1.584128 z"
     fill="#f16037"
     id="path8"
     style="stroke-width:5.12" />
  <defs
     id="defs45">
    <linearGradient
       id="paint0_linear"
       x1="13.681"
       y1="19.9877"
       x2="26.348301"
       y2="19.9877"
       gradientUnits="userSpaceOnUse"
       gradientTransform="scale(5.12)">
      <stop
         stop-color="#97C93D"
         id="stop38" />
      <stop
         offset="0.3585"
         stop-color="#80C44B"
         id="stop40" />
      <stop
         offset="1"
         stop-color="#4EB969"
         id="stop42" />
    </linearGradient>
  </defs>
</svg>
